# xmcd CD database file
#
# Track frame offsets:
#	150
#	51294
#	91077
#	131011
#	176239
#	235463
#	272091
#	300848
#	324088
#
# Disc length: 4591 seconds
#
# Revision: 0
# Processed by: cddbd v1.5.2PL0 Copyright (c) Steve Scherf et al.
# Submitted via: CDex 1.51
#
DISCID=7111ed09
DTITLE=Stanley Sagov - More Memories of the Future
DYEAR=2008
DGENRE=Jazz
TTITLE0=Footprints
TTITLE1=Freedom Jazz Dance
TTITLE2=Evindence
TTITLE3=Alternate Mode
TTITLE4=Oleo
TTITLE5=Eighty One
TTITLE6=Do it on One
TTITLE7=Blue and Green live
TTITLE8=Trance-Flute
EXTD=YEAR: 2008
EXTT0=
EXTT1=
EXTT2=
EXTT3=
EXTT4=
EXTT5=
EXTT6=
EXTT7=
EXTT8=
PLAYORDER=
